<?xml version="1.0" encoding="UTF-8"?><svg id="a" xmlns="http://www.w3.org/2000/svg" viewBox="0 0 566.93 566.93"><defs><style>.c{fill:#f47d20;}.d{fill:#fff;}.e{fill:#023452;}</style></defs><g id="b"><circle class="e" cx="283.46" cy="283.46" r="283.46"/><path class="c" d="M481.86,17.87c-22.04,0-39.92,17.87-39.92,39.92-.02,6.65,1.64,13.2,4.84,19.04-3.97,2-13.22,6.62-26.18,13.36-6.89-14.91-24.56-21.42-39.47-14.53-14.91,6.89-21.42,24.56-14.53,39.47h0c.53,1.11,1.13,2.2,1.78,3.24-6.67,3.69-13.56,7.54-20.69,11.55-6.48-11.13-20.76-14.89-31.89-8.41-11.13,6.48-14.89,20.76-8.41,31.89-7.33,4.39-14.75,8.88-22.14,13.43-7.13-6.15-17.89-5.35-24.04,1.78-2.69,3.13-4.16,7.12-4.13,11.25.02,1.47.22,2.94.59,4.37-28.36,18.06-55.53,37.92-81.36,59.45-26.98-60.3-66.73-126.49-122.1-180.37l-.16-.16c-6.48-6.39-11.74-3.57-4.39,4.39l.28.31c46.96,50.53,83.87,123.67,109.02,190.38-95.4,81.45-200.54,239.28-85.3,288.8,16.79,7.21,24.44-6.6,17.21-10.85-1.29-.75-52.62-28.5-20-113.76h82.18c4.4,0,7.96-3.56,7.96-7.95,0-4.4-3.56-7.96-7.95-7.96h-75.47c4.88-10.34,10.32-20.41,16.27-30.17h59.08c4.4-.24,7.78-4,7.54-8.4-.22-4.07-3.47-7.32-7.54-7.54h-48.93c6.1-9.11,12.94-18.78,20.64-28.67h28.18c4.4-.24,7.78-4,7.54-8.4-.22-4.07-3.47-7.32-7.54-7.54h-15.66c8.92-10.96,18.82-22.35,29.68-34.19l.28-.33c21.65,62.74,32.12,116.23,29.82,134.07-.55,6.38-4.34,12.03-10.03,14.96-4.04,1.9-5.71,7.49.63,9.39,20.17,5.94,32.61-14.09,34.84-30.17s-8.78-75.58-37.92-146.37c25.36-24.76,52.45-47.67,81.08-68.56,2.58,1.52,5.51,2.33,8.5,2.35,9.41,0,17.04-7.61,17.07-17.02,0-1.13-.12-2.25-.35-3.36,7.64-5.31,15.21-10.46,22.71-15.45,9.97,8.08,24.61,6.55,32.69-3.43,4.64-5.72,6.29-13.3,4.45-20.43,7.48-4.7,14.72-9.11,21.72-13.24,11.16,12.01,29.93,12.7,41.94,1.54,8.39-7.79,11.55-19.71,8.12-30.64,12.68-7.04,21.93-12.07,26.46-14.63,12.41,18.22,37.24,22.93,55.46,10.52,18.22-12.41,22.93-37.24,10.52-55.46-7.43-10.91-19.77-17.44-32.97-17.45Z"/><path class="d" d="M325.75,325.5c13.35,0,14.68-1.38,17.49-12.59l17.35-69.76c3.52-14.26,3.56-16.68.9-22.57h30.27c-5.61,5.89-6.8,8.41-10.31,22.57l-16.01,64.3c-7.13,28.51-17.54,38.92-44.86,38.92h-63.68c-24.57,0-31.65-12.59-25.09-38.92l16.2-65.25c2.99-12.02,2.61-16.73,1.47-21.62h55.79c-4.74,6.41-7.99,13.79-9.5,21.62l-17.82,71.28c-2.04,8.27.62,11.79,9.03,11.79l38.78.24Z"/><path class="d" d="M508.1,320.46c2.85,9.05,6.85,17.71,11.88,25.76h-58.97l-14.87-53.27-14.54,12.78-4.75,19.01c-2.99,11.98-2.61,16.73-1.47,21.62h-55.74c4.73-6.42,7.97-13.8,9.5-21.62l20.53-82.54c2.38-6.95,2.89-14.41,1.47-21.62h55.79c-4.74,6.41-7.99,13.79-9.5,21.62l-8.6,34.74,42.29-38.02c7.08-6.32,9.03-9.5,10.07-13.59.35-1.57.6-3.15.76-4.75h43.86c-7.12,3.14-13.74,7.32-19.63,12.4l-29.32,24.76,21.24,62.73Z"/></g></svg>