<?xml version="1.0" encoding="UTF-8"?><svg id="a" xmlns="http://www.w3.org/2000/svg" viewBox="0 0 566.93 566.93"><defs><style>.b{fill:#f47d20;}.c{fill:#4d4848;}</style></defs><path class="b" d="M489.55,0c-23.53,0-42.6,19.07-42.6,42.6-.02,7.1,1.75,14.09,5.16,20.32-4.24,2.13-14.11,7.07-27.94,14.26-7.35-15.92-26.21-22.86-42.13-15.51-15.92,7.35-22.86,26.21-15.51,42.13h0c.57,1.19,1.2,2.34,1.9,3.46-7.12,3.94-14.48,8.05-22.08,12.33-6.92-11.87-22.16-15.89-34.03-8.97-11.87,6.92-15.89,22.16-8.97,34.03-7.82,4.69-15.74,9.47-23.63,14.33-7.61-6.56-19.1-5.71-25.66,1.9-2.88,3.34-4.44,7.6-4.41,12.01.02,1.57.23,3.14.63,4.66-30.27,19.28-59.27,40.47-86.83,63.45C134.66,176.65,92.23,106,33.14,48.49l-.18-.18c-6.92-6.82-12.53-3.81-4.69,4.69l.3.33c50.12,53.93,89.51,131.99,116.35,203.18-101.82,86.93-214.03,255.38-91.04,308.23,17.92,7.69,26.09-7.04,18.37-11.58-1.38-.8-56.16-30.42-21.35-121.41h87.71c4.69,0,8.5-3.8,8.5-8.49,0-4.69-3.8-8.5-8.49-8.5H58.08c5.21-11.03,11.01-21.78,17.37-32.2h63.05c4.7-.26,8.3-4.27,8.05-8.97-.24-4.34-3.7-7.81-8.05-8.05h-52.22c6.52-9.72,13.81-20.05,22.03-30.6h30.07c4.7-.26,8.3-4.27,8.05-8.97-.24-4.34-3.7-7.81-8.05-8.05h-16.71c9.52-11.69,20.08-23.86,31.68-36.49l.3-.35c23.1,66.96,34.28,124.05,31.83,143.09-.59,6.81-4.63,12.84-10.7,15.96-4.31,2.03-6.09,7.99.68,10.02,21.53,6.34,34.81-15.04,37.19-32.2,2.38-17.17-9.37-80.67-40.47-156.22,27.06-26.42,55.98-50.88,86.53-73.17,2.75,1.62,5.88,2.49,9.07,2.51,10.04,0,18.19-8.13,18.22-18.17,0-1.2-.13-2.41-.38-3.58,8.15-5.66,16.23-11.16,24.23-16.49,10.65,8.63,26.27,6.99,34.89-3.66,4.95-6.11,6.71-14.19,4.75-21.8,7.99-5.01,15.71-9.72,23.18-14.13,11.91,12.82,31.95,13.55,44.77,1.65,8.95-8.32,12.32-21.04,8.66-32.7,13.53-7.52,23.41-12.88,28.24-15.61,13.24,19.45,39.75,24.47,59.19,11.23,19.45-13.24,24.47-39.75,11.23-59.19C516.81,6.98,503.64,0,489.55,0Z"/><path class="c" d="M338.88,343.05c14.5,0,15.94-1.5,18.99-13.67l18.83-75.74c3.82-15.48,3.87-18.11.98-24.51h32.86c-6.09,6.4-7.38,9.13-11.2,24.51l-17.39,69.81c-7.74,30.96-19.04,42.25-48.7,42.25h-69.13c-26.67,0-34.36-13.67-27.24-42.25l17.59-70.84c3.25-13.05,2.84-18.16,1.6-23.47h60.57c-5.15,6.96-8.68,14.98-10.32,23.47l-19.35,77.39c-2.22,8.98.67,12.8,9.8,12.8l42.1.26Z"/><path class="c" d="M536.85,337.58c3.1,9.83,7.43,19.23,12.9,27.96h-64.03l-16.15-57.84-15.79,13.88-5.16,20.64c-3.25,13-2.84,18.16-1.6,23.47h-60.52c5.13-6.97,8.66-14.98,10.32-23.47l22.29-89.62c2.59-7.55,3.14-15.65,1.6-23.47h60.57c-5.15,6.96-8.68,14.98-10.32,23.47l-9.34,37.71,45.92-41.27c7.69-6.86,9.8-10.32,10.94-14.76.38-1.7.66-3.42.83-5.16h47.62c-7.73,3.41-14.91,7.94-21.31,13.47l-31.83,26.88,23.06,68.1Z"/></svg>