<?xml version="1.0" encoding="UTF-8"?><svg id="a" xmlns="http://www.w3.org/2000/svg" viewBox="0 0 566.93 453.54"><defs><style>.b{fill:#4d4848;}.b,.c{fill-rule:evenodd;}.c{fill:#f47d20;}</style></defs><path class="b" d="M145.27,216.5c1.03-2.23,1.72-4.46,2.75-7.38,1.2-3.26,2.06-6.52,2.75-9.79l9.79-44.12c.86-4.46,1.37-7.9,1.55-9.79.34-1.72.34-3.61.34-5.32v-2.06h22.15l-13.39,61.29c-1.03,4.29-1.55,7.73-1.89,9.96-.34,2.4-.52,4.81-.52,7.21,0,0-23.52,0-23.52,0Z"/><path class="c" d="M455.68.52c-15.11,0-27.3,12.19-27.3,27.13s1.2,8.93,3.26,12.88c-2.75,1.37-9.1,4.46-18.03,9.1-4.64-10.13-16.83-14.59-26.95-9.79-10.13,4.64-14.59,16.65-9.96,26.78.34.69.69,1.55,1.2,2.23-4.64,2.58-9.27,5.15-14.25,7.9-4.46-7.55-14.25-10.13-21.8-5.67-7.55,4.46-10.13,14.08-5.84,21.63-4.98,2.92-10.13,6.01-15.11,9.1-4.98-4.12-12.36-3.61-16.48,1.37-1.72,2.06-2.75,4.81-2.75,7.55s0,2.06.34,2.92c-19.4,12.36-38.11,25.75-55.8,40.52-18.54-41.03-45.67-86.01-83.61-122.76h0c-4.46-4.46-8.07-2.58-3.09,2.92h0c32.11,34.51,57.51,84.3,74.68,129.62-65.41,55.45-137.35,162.76-58.37,196.41,11.5,4.98,16.83-4.46,11.85-7.38-.86-.52-36.05-19.4-13.73-77.43h56.31c3.09,0,5.49-2.4,5.49-5.49s-2.4-5.49-5.49-5.49h-51.68c3.26-7.04,7.04-13.91,11.16-20.6h40.52c3.09,0,5.32-2.75,5.15-5.67,0-2.75-2.4-4.98-5.15-5.15h-33.48c4.12-6.18,8.93-12.7,14.08-19.57h19.23c3.09,0,5.32-2.75,5.15-5.67,0-2.75-2.4-4.98-5.15-5.15h-10.64c6.18-7.38,12.88-15.28,20.26-23.18h.17c14.77,42.41,21.98,78.8,20.43,90.99-.34,4.29-2.92,8.24-6.87,10.13-2.75,1.37-3.95,5.15.34,6.35,13.73,4.12,22.32-9.61,23.86-20.6,1.55-10.99-6.01-51.33-25.92-99.58,17.34-16.83,35.88-32.45,55.63-46.7,1.72,1.03,3.78,1.55,5.84,1.55,6.52,0,11.67-5.15,11.67-11.67s0-1.55-.17-2.23c5.15-3.61,10.47-7.04,15.62-10.47,2.75,2.23,6.35,3.43,9.96,3.43,8.76,0,15.97-6.87,15.97-15.62s0-2.75-.52-4.12c5.15-3.26,10.13-6.18,14.94-8.93,7.55,8.24,20.43,8.58,28.67,1.03,5.84-5.32,7.9-13.39,5.49-20.77,8.76-4.81,15.11-8.24,18.2-9.96,8.58,12.36,25.58,15.62,37.94,7.21,12.53-8.41,15.62-25.41,7.21-37.77-5.15-7.38-13.56-11.85-22.66-11.85h0v.52h.17Z"/><path class="b" d="M80.03,155.2c.34-1.37.69-2.58.69-3.95s0-1.2-.34-1.72c-.69-1.03-2.4-1.55-4.81-1.55h-35.88c-1.89,0-3.61.34-5.15,1.55-1.55,1.55-2.4,3.61-2.4,5.67l-4.29,18.03h47.73l4.29-18.03h.17ZM85.52,216.5H16.33c-6.87,0-11.67-1.55-14.25-4.81-1.37-2.23-2.23-4.81-2.06-7.38,0-2.92.52-5.67,1.2-8.58l8.58-37.08c1.89-7.55,4.64-12.88,8.24-15.97,3.78-3.09,9.1-4.81,16.31-4.81h51.16c7.21,0,12.02,1.55,14.42,4.81,1.72,2.23,2.4,4.98,2.23,7.73,0,2.75-.34,5.67-1.2,8.41l-5.49,24.55H25.77l-3.78,15.97c-.34,1.2-.52,2.58-.52,3.78s0,1.55.34,1.89c.52,1.03,2.06,1.55,4.46,1.55h50.65c4.46,0,8.93-.34,13.22-1.37l-4.81,11.33h.17Z"/><path class="b" d="M102.17,216.5c1.03-2.4,1.89-5.15,3.09-8.41,1.2-3.61,2.23-7.38,3.09-11.16l17.68-82.58c1.03-5.15,1.72-8.93,2.06-11.16s.34-4.98.34-8.41h24.72l-21.98,102.15c-1.03,4.98-1.72,8.76-2.23,11.5-.34,2.75-.69,5.49-.52,8.24h-26.27v-.17Z"/><path class="b" d="M390.61,151.26c-2.58,0-5.15-.34-8.07-.34h-11.5c-1.89,0-3.61.34-5.15,1.37-1.55,1.37-2.58,3.09-2.92,5.15l-9.61,41.89c-1.37,4.98-2.23,10.13-2.4,15.28v1.89h-25.07c1.03-2.58,2.06-4.81,2.75-7.21.69-2.4,1.55-5.49,2.75-9.96l10.3-44.12c1.2-4.29,1.72-7.73,2.23-10.13.34-2.4.34-4.64.34-7.04h21.12l-.86,8.07c1.2-2.4,2.92-4.46,5.32-6.01,2.75-1.55,5.84-2.23,9.1-2.06h20.6l4.98,8.58c-1.03.86-2.06,2.06-2.92,3.09-1.2,1.55-2.06,2.23-2.58,2.23-3.09,0-5.84-.52-8.41-.69h0Z"/><path class="b" d="M278.84,216.5c1.03-2.23,1.89-4.46,2.92-7.38,1.2-3.26,2.23-6.52,2.92-9.79l10.82-44.12c.86-4.46,1.55-7.9,1.72-9.79.34-1.72.34-3.61.34-5.32v-2.06h24.38l-14.59,61.29c-1.03,4.29-1.72,7.73-2.06,9.96-.52,2.4-.69,4.81-.52,7.21h-25.92,0Z"/><path class="b" d="M188.53,110.39c0,6.52-5.32,11.85-11.67,11.85s-11.85-5.32-11.85-11.67,5.32-11.85,11.67-11.85h0c6.52,0,11.67,5.32,11.67,11.67h.17Z"/><path class="b" d="M241.24,377.49c4.64,0,5.15-.52,6.01-4.46l6.01-24.55c1.2-4.98,1.2-5.84.34-7.9h10.47c-1.89,2.06-2.4,2.92-3.61,7.9l-5.49,22.66c-2.4,10.13-6.18,13.73-15.62,13.73h-22.15c-8.58,0-10.99-4.46-8.76-13.73l5.67-23.01c1.03-4.29.86-5.84.52-7.55h19.4c-1.72,2.23-2.75,4.81-3.26,7.55l-6.18,25.24c-.69,2.92.17,4.12,3.09,4.12h13.56Z"/><path class="b" d="M274.03,348.13h0l-7.04,28.67c-1.2,4.98-1.2,5.84-.34,7.9h-10.47c1.89-2.06,2.4-2.92,3.61-7.9l6.87-28.5c1.2-4.98,1.2-5.84.34-7.9h23.18l8.76,36.05h.17l6.87-28.16c1.2-4.98,1.2-5.84.34-7.9h10.47c-1.89,2.06-2.4,2.92-3.61,7.9l-8.76,36.4h-21.29l-8.93-36.57h-.17Z"/><path class="b" d="M312.66,384.87c1.72-2.23,2.92-4.81,3.43-7.55l7.55-29.19c1.03-4.29,1.03-5.84.52-7.55h20.6c-1.72,2.23-2.92,4.81-3.43,7.55l-7.55,29.19c-1.03,4.29-1.03,5.84-.52,7.55h-20.6Z"/><path class="b" d="M389.41,340.4l-.86,9.1c-1.55-1.37-3.61-2.06-5.67-1.89h-7.55l-7.04,29.36c-1.03,4.29-.86,5.84-.52,7.55h-19.06c1.55-2.23,2.75-4.81,3.26-7.55l7.04-29.36h-7.55c-2.23,0-4.64.52-6.52,1.89l3.61-9.1h40.86Z"/><path class="b" d="M415.33,377.49c2.58,0,5.32-.34,7.73-1.2l-3.61,8.58h-38.29c1.72-2.23,2.75-4.81,3.26-7.55l7.04-29.19c1.03-4.29.86-5.84.52-7.55h37.6l-.69,8.58c-2.23-.86-4.81-1.2-7.21-1.2h-13.56l-2.58,10.47h11.85c2.58,0,5.32-.34,7.73-1.2l-2.4,9.79c-2.23-.86-4.81-1.2-7.21-1.2h-11.85l-2.92,11.85h14.59v-.17Z"/><path class="b" d="M445.89,377.49h8.93c2.75,0,3.43-.69,4.12-3.61l5.67-22.49c.69-2.92.52-3.61-2.23-3.61h-8.93l-7.55,29.7h0ZM436.28,348.13c1.03-4.29.86-5.84.52-7.55h34.85c9.61,0,12.02,3.61,9.79,12.53l-4.81,19.23c-2.23,8.93-6.52,12.7-16.14,12.7h-34.85c1.72-2.23,2.92-4.81,3.43-7.55l7.21-29.19h0v-.17Z"/><path class="b" d="M250.86,444.27c1.03,3.26,2.4,6.18,4.12,9.1h-20.09l-4.98-18.71-4.98,4.46-1.55,6.7c-1.03,4.29-.86,5.84-.52,7.55h-18.89c1.55-2.23,2.75-4.81,3.26-7.55l7.04-29.01c.86-2.4,1.03-5.15.52-7.55h18.89c-1.55,2.23-2.75,4.81-3.26,7.55l-2.92,12.19,14.42-13.39c2.4-2.23,3.09-3.26,3.43-4.81,0-.52.17-1.03.17-1.72h14.94c-2.4,1.03-4.64,2.58-6.7,4.29l-9.96,8.76,7.21,22.15h-.17Z"/><path class="b" d="M260.3,453.37c1.55-2.23,2.58-4.81,3.09-7.55l6.7-29.19c1.03-4.29.86-5.84.52-7.55h18.03c-1.55,2.23-2.58,4.81-3.09,7.55l-6.7,29.19c-1.03,4.29-.86,5.84-.52,7.55h-18.03Z"/><path class="b" d="M302.19,416.63h0l-7.04,28.67c-1.2,4.98-1.2,5.84-.34,7.9h-10.47c1.89-2.06,2.4-2.92,3.61-7.9l6.87-28.33c1.2-4.98,1.2-5.84.34-7.9h23.18l8.76,36.23h.17l6.87-28.16c1.2-4.98,1.2-5.84.34-7.9h10.47c-1.89,2.06-2.4,2.92-3.61,7.9l-8.76,36.4h-21.46l-8.93-36.74h0v-.17Z"/><path class="b" d="M393.35,426.76c-2.06,1.89-3.26,4.29-3.78,6.87l-2.75,10.99c-1.37,5.49-1.37,6.35-.34,8.76h-14.94l.52-4.12h0c-1.37,2.58-2.4,4.12-7.21,4.12h-14.94c-7.21,0-10.3-3.43-8.07-13.05l4.64-18.37c2.4-9.61,7.21-13.05,14.42-13.05h32.45l-.86,8.58c-2.06-.86-4.29-1.2-6.52-1.2h-18.03c-2.23,0-3.43.69-3.95,2.92l-6.01,24.04c-.52,2.06.34,2.92,2.58,2.92h5.67c2.23,0,3.43-.69,4.12-2.92l2.23-9.1h-6.35c-1.03,0-2.06.34-3.09.86l2.06-8.24h28.16Z"/><path class="b" d="M409.66,446.16h8.93c2.75,0,3.43-.69,4.12-3.61l5.67-22.49c.69-2.92.52-3.61-2.23-3.61h-8.93l-7.55,29.7h0ZM399.88,416.63c1.03-4.29.86-5.84.52-7.55h34.85c9.61,0,12.02,3.61,9.79,12.7l-4.81,19.06c-2.23,9.1-6.52,12.7-16.14,12.7h-34.85c1.72-2.23,2.92-4.81,3.43-7.55l7.21-29.19h0v-.17Z"/><path class="b" d="M462.37,443.24c-.52,2.06.34,2.92,2.58,2.92h7.21c2.06,0,3.43-.69,3.95-2.92l5.84-24.04c.52-2.06-.34-2.92-2.58-2.92h-7.21c-2.23,0-3.43.69-3.95,2.92l-5.84,24.04ZM451.04,422.12c2.23-9.61,7.04-13.05,14.08-13.05h24.72c7.04,0,10.13,3.43,7.73,13.05l-4.46,18.37c-2.23,9.61-7.04,13.05-14.08,13.05h-24.72c-7.04,0-10.13-3.43-7.73-13.05l4.46-18.37h0Z"/><path class="b" d="M544.78,409.08h22.15c-1.72,2.23-2.75,4.81-3.26,7.55l-7.04,29.01c-1.03,4.29-.86,5.84-.34,7.55h-19.23c1.55-2.23,2.75-4.81,3.26-7.55l6.52-27.3h0l-20.43,34.85h-11.33l-3.09-34.85h0l-6.52,26.95c-1.2,4.98-1.2,5.84-.34,7.9h-10.3c1.89-2.06,2.4-2.92,3.61-7.9l6.87-28.33c1.2-4.98,1.2-5.84.34-7.9h22.83l2.06,25.07h0l14.77-25.07h-.52Z"/></svg>