<svg xmlns="http://www.w3.org/2000/svg" version="1.1" viewBox="185.12 570.5 1678.63 1020.35"><path d="M 548.508 852.750 C 548.129 859.212, 546.474 871.475, 544.830 880 C 539.423 908.036, 489.028 1140.308, 486.466 1149 C 485.088 1153.675, 481.926 1163.125, 479.438 1170 C 476.951 1176.875, 474.822 1182.950, 474.708 1183.500 C 474.572 1184.153, 487.528 1184.500, 512 1184.500 L 549.500 1184.500 550.164 1173 C 551.025 1158.107, 550.777 1159.324, 587.578 989.500 C 604.860 909.750, 618.999 843.712, 619 842.750 C 619 841.117, 616.672 841, 584.099 841 L 549.197 841 548.508 852.750 M 674.198 850.632 C 668.052 852.874, 658.766 861.825, 655.930 868.240 C 652.753 875.428, 652.648 887.433, 655.703 894.176 C 658.545 900.447, 665.300 907.589, 671.460 910.835 C 675.890 913.169, 677.650 913.490, 686 913.490 C 694.350 913.490, 696.110 913.169, 700.540 910.835 C 706.700 907.589, 713.455 900.447, 716.297 894.176 C 719.487 887.136, 719.298 875.330, 715.878 868 C 712.782 861.365, 706.562 854.947, 700.195 851.818 C 694.177 848.860, 680.737 848.247, 674.198 850.632 M 269.404 960.020 C 250.060 962.060, 236.007 969.737, 226.804 983.289 C 217.916 996.376, 216.041 1002.623, 199.418 1074.500 C 187.229 1127.205, 185.720 1134.737, 185.269 1145.090 C 184.580 1160.921, 186.194 1166.574, 193.408 1173.598 C 199.771 1179.794, 207.140 1182.588, 221 1184.060 C 226.922 1184.689, 267.412 1184.962, 328.496 1184.785 L 426.492 1184.500 433.303 1168.141 C 437.049 1159.143, 439.976 1151.661, 439.807 1151.515 C 439.638 1151.369, 436.125 1151.939, 432 1152.783 C 425.711 1154.069, 410.851 1154.383, 340 1154.726 C 281.678 1155.008, 254.375 1154.803, 251.870 1154.063 C 247.225 1152.692, 245.580 1149.081, 246.536 1142.356 C 247.078 1138.539, 251.997 1116.097, 257.517 1092.250 L 258.038 1090 356.050 1090 C 433.582 1090, 454.146 1089.739, 454.460 1088.750 C 454.679 1088.063, 458.783 1070.175, 463.582 1049 C 471.121 1015.730, 472.367 1008.918, 472.755 998.857 C 473.362 983.121, 471.805 977.675, 464.654 970.523 C 458.519 964.388, 451.226 961.513, 437.923 959.983 C 428.137 958.858, 280.112 958.891, 269.404 960.020 M 641 967.439 C 641 972.080, 639.855 982.542, 638.456 990.689 C 635.991 1005.043, 605.953 1136.884, 602.160 1150 C 599.808 1158.133, 593.214 1176.604, 591.378 1180.200 C 590.620 1181.686, 590 1183.373, 590 1183.950 C 590 1184.664, 601.380 1185, 625.500 1185 L 661 1185 661 1178.599 C 661 1175.079, 661.879 1167.092, 662.952 1160.849 C 664.354 1152.702, 701.156 987.809, 707.501 961.250 L 708.038 959 674.519 959 L 641 959 641 967.439 M 1021.697 969.250 C 1020.731 985.615, 1017.788 1000.494, 1001.864 1069.500 C 982.965 1151.397, 983.060 1151.027, 976.484 1168.867 C 973.468 1177.049, 971 1184.032, 971 1184.385 C 971 1184.737, 986.862 1184.907, 1006.250 1184.763 L 1041.500 1184.500 1042.100 1175 C 1042.927 1161.911, 1043.446 1159.412, 1067.069 1054.859 C 1078.581 1003.906, 1088 961.494, 1088 960.609 C 1088 959.163, 1084.672 959, 1055.151 959 L 1022.301 959 1021.697 969.250 M 1150.551 967.750 C 1149.594 981.090, 1147.588 990.872, 1130.199 1067 C 1112.499 1144.493, 1108.771 1159.359, 1103.527 1173.360 C 1101.587 1178.539, 1100 1183.277, 1100 1183.888 C 1100 1184.683, 1109.950 1185, 1134.850 1185 L 1169.699 1185 1170.359 1174.131 C 1170.723 1168.152, 1171.501 1160.615, 1172.089 1157.381 C 1174.488 1144.197, 1204.092 1013.190, 1205.553 1009.297 C 1207.456 1004.223, 1212.586 999.487, 1217.723 998.060 C 1222.481 996.739, 1262.611 996.703, 1278 998.007 C 1284.325 998.542, 1293.123 999.270, 1297.551 999.623 L 1305.602 1000.264 1312.257 992.220 L 1318.912 984.176 1311.854 971.588 L 1304.797 959 1274.648 959.020 C 1258.067 959.031, 1241.350 959.486, 1237.500 960.031 C 1225.594 961.716, 1218.106 966.236, 1210.198 976.509 C 1208.491 978.727, 1208.021 978.983, 1208.377 977.500 C 1208.641 976.400, 1209.161 971.788, 1209.532 967.250 L 1210.208 959 1180.694 959 L 1151.180 959 1150.551 967.750 M 287.271 990.964 C 282.737 993.022, 279.527 997.244, 278.120 1003 C 277.650 1004.925, 274.657 1017.975, 271.470 1032 C 268.283 1046.025, 265.475 1058.063, 265.230 1058.750 C 264.878 1059.742, 278.590 1060, 331.659 1060 L 398.533 1060 405.266 1030.746 C 408.970 1014.657, 412 1000.002, 412 998.180 C 412 993.382, 410.471 991.225, 406.238 990.049 C 403.858 989.388, 382.345 989.017, 347 989.028 C 294.427 989.043, 291.277 989.145, 287.271 990.964 M 1098.377 1447.255 C 1098.262 1456.908, 1097.436 1460.766, 1084.099 1514 C 1071.763 1563.235, 1069.386 1571.625, 1065.612 1579.250 L 1061.281 1588 1126.450 1588 L 1191.619 1588 1197.431 1573.750 C 1200.628 1565.912, 1203.439 1558.999, 1203.676 1558.387 C 1203.924 1557.749, 1201.628 1558.165, 1198.304 1559.359 C 1192.996 1561.266, 1189.871 1561.475, 1161.750 1561.798 C 1134.477 1562.113, 1131 1561.977, 1131 1560.601 C 1131 1559.748, 1136.868 1535.526, 1144.040 1506.775 C 1155.328 1461.522, 1157.659 1453.325, 1161.399 1445.750 L 1165.719 1437 1132.110 1437.005 L 1098.500 1437.010 1098.377 1447.255 M 1246.412 1446.751 C 1246.330 1455.830, 1245.351 1460.365, 1232.162 1512.770 C 1218.321 1567.766, 1215.296 1577.967, 1211.073 1583.898 C 1209.933 1585.499, 1209 1587.077, 1209 1587.404 C 1209 1587.732, 1223.977 1588, 1242.282 1588 L 1275.564 1588 1275.674 1579.250 C 1275.771 1571.523, 1277.427 1563.955, 1289.842 1514.500 C 1304.973 1454.225, 1306.400 1449.322, 1310.977 1441.882 L 1313.982 1437 1280.241 1437.001 L 1246.500 1437.001 1246.412 1446.751 M 1329.087 1439.250 C 1328.612 1440.487, 1325.737 1447.688, 1322.698 1455.250 C 1319.659 1462.813, 1317.304 1469, 1317.465 1469 C 1317.626 1469, 1320.400 1467.766, 1323.629 1466.258 C 1329.238 1463.638, 1330.316 1463.500, 1347.793 1463.162 L 1366.086 1462.808 1365.369 1465.654 C 1364.975 1467.219, 1358.941 1491.578, 1351.961 1519.785 C 1341.350 1562.662, 1338.633 1572.334, 1335.385 1578.785 C 1333.248 1583.028, 1331.350 1586.838, 1331.167 1587.250 C 1330.983 1587.662, 1345.833 1588, 1364.167 1588 L 1397.500 1588 1397.511 1579.250 C 1397.521 1571.363, 1398.852 1565.194, 1411.011 1516.674 L 1424.500 1462.848 1442.500 1463.174 C 1459.879 1463.489, 1460.664 1463.592, 1465.249 1466.179 L 1469.998 1468.858 1470.446 1466.679 C 1471.055 1463.720, 1473.006 1443.170, 1473.003 1439.750 L 1473 1437 1401.475 1437 L 1329.950 1437 1329.087 1439.250 M 1495.671 1440.250 C 1496.127 1442.037, 1496.421 1445.750, 1496.324 1448.500 C 1496.112 1454.490, 1467.787 1569.424, 1464.915 1575.944 C 1463.812 1578.450, 1461.558 1582.188, 1459.907 1584.250 L 1456.906 1588 1475.561 1588 L 1494.217 1588 1493.364 1585.250 C 1491.374 1578.840, 1492.870 1570.716, 1505.043 1521.789 C 1511.846 1494.448, 1517.502 1472.173, 1517.611 1472.289 C 1517.721 1472.405, 1520.196 1498.487, 1523.113 1530.250 L 1528.416 1588 1548.659 1588 L 1568.901 1588 1603.104 1530.987 C 1621.916 1499.629, 1637.483 1474.149, 1637.697 1474.364 C 1638.485 1475.151, 1613.847 1571.288, 1611.496 1576.606 C 1610.160 1579.626, 1608.121 1583.425, 1606.966 1585.048 L 1604.864 1588 1638.682 1587.999 L 1672.500 1587.999 1672.580 1578.249 C 1672.654 1569.152, 1673.606 1564.742, 1686.814 1512.328 C 1701.180 1455.315, 1702.997 1449.133, 1707.482 1442.029 C 1708.867 1439.835, 1710 1437.801, 1710 1437.508 C 1710 1437.216, 1692.615 1437.094, 1671.367 1437.238 L 1632.735 1437.500 1607.879 1478.439 C 1594.208 1500.955, 1582.671 1519.729, 1582.241 1520.159 C 1581.811 1520.589, 1579.980 1503.291, 1578.171 1481.720 C 1576.362 1460.149, 1574.648 1441.263, 1574.362 1439.750 L 1573.841 1437 1534.341 1437 L 1494.841 1437 1495.671 1440.250 M 937.323 1446.750 C 937.222 1454.480, 935.523 1462.224, 922.735 1513.209 C 908.396 1570.378, 908.032 1571.578, 900.206 1587.257 C 899.999 1587.674, 929.653 1587.899, 966.104 1587.757 L 1032.380 1587.500 1038.190 1574.070 C 1041.386 1566.684, 1044 1560.128, 1044 1559.502 C 1044 1558.712, 1041.933 1558.903, 1037.250 1560.124 C 1031.542 1561.613, 1025.753 1561.894, 999.750 1561.942 C 982.837 1561.974, 968.997 1561.662, 968.994 1561.250 C 968.991 1560.838, 971.072 1552.016, 973.619 1541.647 L 978.249 1522.793 1005.374 1523.250 C 1027.322 1523.620, 1033.521 1524.034, 1037.849 1525.422 C 1040.790 1526.365, 1043.346 1526.987, 1043.528 1526.806 C 1043.835 1526.498, 1052 1494.578, 1052 1493.683 C 1052 1493.458, 1048.513 1494.110, 1044.250 1495.130 C 1037.747 1496.686, 1032.356 1496.986, 1010.750 1496.992 C 996.587 1496.996, 985 1496.766, 985 1496.479 C 985 1496.193, 986.868 1488.495, 989.151 1479.373 L 993.302 1462.787 1022.901 1463.248 C 1046.653 1463.618, 1053.488 1464.032, 1057.500 1465.344 C 1060.250 1466.243, 1063 1466.983, 1063.612 1466.989 C 1064.278 1466.996, 1064.986 1463.891, 1065.376 1459.250 C 1065.735 1454.987, 1066.305 1448.463, 1066.643 1444.750 L 1067.258 1438 1002.347 1438 L 937.436 1438 937.323 1446.750 M 1726.088 1474.250 C 1725.613 1475.487, 1723.149 1481.655, 1720.612 1487.957 C 1718.076 1494.258, 1716 1499.692, 1716 1500.033 C 1716 1500.373, 1719.037 1499.617, 1722.750 1498.352 C 1729.311 1496.116, 1730.542 1496.051, 1766.628 1496.026 C 1808.583 1495.997, 1807.287 1495.761, 1805.114 1503.015 C 1804.462 1505.189, 1803.075 1507.425, 1802.030 1507.984 C 1800.863 1508.609, 1788.262 1509.003, 1769.316 1509.008 C 1734.999 1509.016, 1728.304 1509.694, 1719.286 1514.073 C 1712.392 1517.420, 1708.571 1521.455, 1704.585 1529.596 C 1700.854 1537.214, 1696.050 1555.979, 1695.391 1565.500 C 1694.660 1576.089, 1697.042 1581.197, 1704.473 1584.973 L 1709.447 1587.500 1743.473 1587.500 C 1781.347 1587.500, 1780.616 1587.618, 1786.852 1580.516 L 1790 1576.930 1790 1582.465 L 1790 1588 1819.475 1588 L 1848.950 1588 1847.975 1585.435 C 1845.830 1579.792, 1847.046 1571.878, 1854.915 1540.279 C 1859.268 1522.797, 1863.131 1505.345, 1863.498 1501.497 C 1864.693 1488.977, 1861.094 1480.129, 1853.160 1476.082 C 1845.905 1472.380, 1839.300 1472, 1782.292 1472 L 1726.950 1472 1726.088 1474.250 M 1763.942 1534.472 C 1760.834 1536.162, 1759.643 1538.647, 1757.021 1548.917 C 1753.115 1564.214, 1753.394 1564.500, 1772.240 1564.500 L 1786.173 1564.500 1788.568 1561.716 C 1790.960 1558.935, 1793.709 1551.048, 1796.398 1539.250 L 1797.823 1533 1782.161 1533.040 C 1770.739 1533.069, 1765.808 1533.457, 1763.942 1534.472" stroke="none" fill="#4c4c4c" fill-rule="evenodd"/><path d="M 1452.193 571.026 C 1401.653 577.960, 1371.414 630.455, 1390.992 677.272 L 1393.824 684.044 1369.662 696.272 C 1356.373 702.997, 1345.274 708.613, 1344.999 708.750 C 1344.723 708.888, 1343.420 706.971, 1342.104 704.491 C 1338.589 697.864, 1326.459 686.799, 1318.598 683.047 C 1295.932 672.229, 1270.194 676.655, 1252.534 694.405 C 1240.478 706.524, 1235.390 719.986, 1236.252 737.494 C 1236.711 746.826, 1237.732 750.932, 1242.345 762 C 1242.817 763.133, 1238.306 766.096, 1223.918 774.106 L 1204.866 784.711 1199.432 779.014 C 1193.206 772.486, 1186.891 768.728, 1178.465 766.533 C 1166.907 763.522, 1154.005 765.291, 1143.772 771.288 C 1137.271 775.098, 1129.301 784.135, 1125.733 791.741 C 1121.496 800.773, 1120.736 814, 1123.880 823.957 C 1125.002 827.508, 1125.825 830.492, 1125.710 830.588 C 1125.594 830.683, 1116.275 836.354, 1105 843.190 L 1084.500 855.619 1081.063 853.283 C 1072.463 847.438, 1059.876 846.621, 1049.763 851.251 C 1042.088 854.765, 1037.509 859.221, 1033.771 866.815 C 1030.902 872.642, 1030.497 874.458, 1030.473 881.588 L 1030.445 889.717 1004.473 907.161 C 960.421 936.746, 919.358 966.813, 889.500 991.345 C 876.300 1002.190, 875.445 1002.724, 874.541 1000.674 C 874.013 999.478, 868.510 987.740, 862.310 974.589 C 820.389 885.659, 766.386 799.896, 707.983 729.500 C 682.092 698.292, 639.346 653.397, 633.269 651.031 C 628.538 649.189, 624.999 650.361, 625.004 653.769 C 625.009 657.488, 627.557 661.385, 636.038 670.643 C 702.329 743.010, 767.289 851.593, 820.516 979 C 828.361 997.780, 841 1029.903, 841 1031.064 C 841 1031.414, 833.238 1038.693, 823.750 1047.241 C 738.402 1124.135, 663.698 1218.702, 621.126 1303.739 C 602.061 1341.821, 590.047 1376.578, 583.876 1411.500 C 580.835 1428.715, 580.546 1462.183, 583.312 1477 C 588.593 1505.292, 601.104 1529.218, 620.960 1549 C 634.516 1562.504, 646.679 1571.090, 666.155 1580.899 C 684.421 1590.100, 692.265 1592.154, 701.358 1590.119 C 712.993 1587.515, 719.713 1578.048, 715.887 1569.650 C 715.274 1568.306, 711.061 1564.685, 706.525 1561.604 C 682.788 1545.480, 663.319 1515.171, 656.675 1484 C 648.854 1447.301, 653.610 1402.110, 670.085 1356.578 L 673.189 1348 752.345 1347.994 C 801.207 1347.991, 832.856 1347.612, 835.044 1347.004 C 836.994 1346.463, 840.115 1344.445, 841.980 1342.521 C 844.895 1339.513, 845.431 1338.187, 845.802 1333.067 C 846.329 1325.774, 843.829 1320.974, 837.939 1317.969 C 834.204 1316.063, 831.719 1316, 760.533 1316 L 686.986 1316 693.586 1302.750 C 697.216 1295.463, 704.075 1282.638, 708.828 1274.250 L 717.471 1259 775.986 1258.998 C 829.698 1258.997, 834.786 1258.853, 837.980 1257.248 C 848.429 1251.999, 848.882 1236.166, 838.759 1229.995 C 835.625 1228.084, 833.631 1228.007, 786.750 1228.004 C 759.938 1228.002, 738 1227.759, 738 1227.463 C 738 1226.622, 753.231 1204.986, 765.214 1188.805 L 776.096 1174.111 805.298 1173.805 C 832.649 1173.519, 834.722 1173.370, 837.997 1171.446 C 843.222 1168.376, 846 1163.641, 846 1157.802 C 846 1151.860, 844.110 1147.928, 839.765 1144.829 C 836.730 1142.664, 835.285 1142.465, 819.244 1142 L 801.988 1141.500 815.072 1126 C 836.907 1100.134, 857.178 1077.773, 857.986 1078.661 C 858.976 1079.748, 870.390 1114.417, 877.357 1137.500 C 893.295 1190.301, 905.849 1243.189, 912.133 1284 C 913.856 1295.189, 914.381 1303.066, 914.433 1318.500 L 914.500 1338.500 911.390 1345 C 907.881 1352.336, 902.721 1358.081, 897.038 1360.980 C 889.764 1364.692, 886.905 1371.564, 890.501 1376.697 C 893.647 1381.189, 908.695 1384.032, 918.545 1381.996 C 939.330 1377.698, 956.549 1357.731, 963.122 1330.301 C 972.619 1290.676, 942.608 1167.093, 894.157 1046.306 L 892.073 1041.112 907.787 1026.219 C 930.335 1004.848, 946.498 990.459, 970.500 970.393 C 995.312 949.649, 1045.018 911, 1046.885 911 C 1047.360 911, 1049.718 911.724, 1052.124 912.609 C 1059.376 915.275, 1069.402 914.829, 1076.795 911.511 C 1089.015 906.028, 1096.284 894.800, 1096.498 881.078 L 1096.598 874.656 1117.802 860.262 L 1139.005 845.867 1141.958 847.970 C 1150.123 853.784, 1162.401 856.500, 1173.445 854.937 C 1190.526 852.517, 1204.318 840.833, 1210.025 823.946 C 1211.804 818.684, 1212.132 815.829, 1211.812 808.398 C 1211.430 799.522, 1211.484 799.258, 1213.960 797.808 C 1215.357 796.990, 1224.465 791.465, 1234.199 785.530 L 1251.898 774.740 1256.607 778.885 C 1265.927 787.089, 1279.673 792, 1293.316 792 C 1327.606 792, 1354.536 761.799, 1350.266 728.133 C 1349.442 721.635, 1349.459 719.225, 1350.336 718.387 C 1352.239 716.568, 1399 691.100, 1399 691.882 C 1399 692.277, 1401.290 695.170, 1404.089 698.310 C 1428.933 726.185, 1469.398 732.610, 1501.500 713.778 C 1509.916 708.841, 1523.174 695.762, 1527.855 687.779 C 1540.382 666.414, 1542.533 640.978, 1533.670 619.035 C 1524.223 595.647, 1503.707 577.972, 1479.714 572.550 C 1471.187 570.624, 1459.744 569.990, 1452.193 571.026" stroke="none" fill="#f47c24" fill-rule="evenodd"/></svg>